<?xml version="1.0" encoding="utf-8"?>
<!-- Generator: Adobe Illustrator 24.0.2, SVG Export Plug-In . SVG Version: 6.00 Build 0)  -->
<svg version="1.1" id="Layer_1" xmlns="http://www.w3.org/2000/svg" xmlns:xlink="http://www.w3.org/1999/xlink" x="0px" y="0px"
	 viewBox="0 0 32 32" style="enable-background:new 0 0 32 32;" xml:space="preserve">
<style type="text/css">
	.st0{fill:#FFCE00;stroke:#333333;stroke-width:2.1087;}
	.st1{fill:#F9941C;}
	.st2{fill:#FFCE00;}
</style>
<circle class="st0" cx="16" cy="16" r="14.9"/>
<g transform="matrix(-4.3284 -4.3284 4.3284 -4.3284 -36.134 -15.471)">
	<g transform="translate(-.010814 -.0030931)">
		<path class="st1" d="M-7.5,2.4l-0.8,0.4V1.9l0.4,0.2L-7.5,2.4z"/>
		<path class="st1" d="M-11.8,2.4l0.8,0.4V1.9l-0.4,0.2L-11.8,2.4z"/>
	</g>
	
		<rect x="-9.9" y="0.6" transform="matrix(-2.535182e-06 -1 1 -2.535182e-06 -12.0476 -7.2737)" class="st1" width="0.5" height="3.5"/>
</g>
<g transform="matrix(-4.3284 -4.3284 4.3284 -4.3284 -36.134 -15.471)">
	<g transform="translate(-.010814 -.0030931)">
		<path class="st1" d="M-9.6,0.3l0.4,0.8H-10l0.2-0.4L-9.6,0.3z"/>
		<path class="st1" d="M-9.6,4.6l0.4-0.8H-10l0.2,0.4L-9.6,4.6z"/>
	</g>
	
		<rect x="-11.3" y="2.2" transform="matrix(-2.535137e-06 -1 1 -2.535137e-06 -12.0476 -7.1206)" class="st1" width="3.5" height="0.5"/>
</g>
<circle class="st2" cx="16.1" cy="16.2" r="3"/>
</svg>
