<?xml version="1.0" encoding="utf-8"?>
<!-- Generator: Adobe Illustrator 28.3.0, SVG Export Plug-In . SVG Version: 6.00 Build 0)  -->
<svg version="1.1" id="Layer_1" xmlns="http://www.w3.org/2000/svg" xmlns:xlink="http://www.w3.org/1999/xlink" x="0px" y="0px"
	 viewBox="0 0 32 32" style="enable-background:new 0 0 32 32;" xml:space="preserve">
<style type="text/css">
	.st0{fill:#3A3939;}
	.st1{fill:none;stroke:#515151;stroke-width:2.2677;stroke-miterlimit:10;}
	.st2{fill:none;stroke:#FFFFFF;stroke-width:0.5669;stroke-miterlimit:10;}
	.st3{fill:#3A3939;stroke:#515151;stroke-width:0.5669;stroke-miterlimit:10;}
	.st4{fill:#FFFFFF;}
	.st5{fill:#EE6C4A;}
	.st6{fill:#FF9700;}
</style>
<g>
	<circle class="st0" cx="16" cy="16" r="14.9"/>
	<circle class="st1" cx="16" cy="16" r="14.9"/>
	<circle class="st2" cx="16" cy="16" r="14.9"/>
</g>
<circle class="st3" cx="16" cy="7.9" r="4.1"/>
<g>
	<path class="st4" d="M8.6,5.5c5.1,0,10.1,0,15.2,0c0,1.8,0,3.6,0,5.4c0,0.8-0.6,1.4-1.4,1.4c-0.4,0-0.8,0-1.2,0c-0.1,0-0.2,0-0.3,0
		c0,0.2,0,0.4,0,0.7c0,0.7-0.5,1.2-1.2,1.3c-0.2,0-0.3,0-0.5,0c0,0.1,0,0.1,0,0.1c0,0.9-0.4,1.6-1.2,2c-0.1,0-0.1,0.1-0.1,0.2
		c0,0.7,0,1.4,0,2.1c0,0.1,0,0.1,0,0.2c-0.4,0-0.8,0-1.1,0c0,0.2,0,0.4,0,0.6c0,0.5,0.1,0.6,0.6,0.6c2.3,0,4.6,0,6.9,0
		c0.4,0,0.8,0.1,1.1,0.4c0.3,0.2,0.4,0.6,0.5,0.9c0,0.1,0,0.3,0,0.4c-0.1,0.2-0.1,0.3-0.2,0.5C25.5,22.7,25,23,24.3,23
		c-5.3,0-10.7,0-16,0c-0.1,0-0.2,0-0.2,0c-0.2,0-0.3,0.2-0.3,0.4c0,0.2,0.1,0.3,0.3,0.4c0.1,0,0.2,0,0.2,0c5.9,0,11.8,0,17.7,0
		c0,0.4,0,0.8,0,1.1c-5.9,0-11.8,0-17.7,0c-0.1,0-0.2,0-0.2,0c-1.2-0.1-1.8-1.3-1.2-2.3c0.3-0.5,0.8-0.7,1.4-0.7
		c5.4,0,10.7,0,16.1,0c0.3,0,0.5-0.1,0.5-0.4c0-0.2-0.2-0.4-0.5-0.4c-2.3,0-4.6,0-7,0c-1,0-1.6-0.6-1.6-1.6c0-0.2,0-0.4,0-0.7
		c-0.4,0-0.8,0-1.1,0c0-0.8,0-1.5,0-2.2c0-0.1,0-0.2-0.2-0.3c-0.5-0.2-0.8-0.6-1-1.1c-0.1-0.3-0.1-0.6-0.2-1c-0.1,0-0.1,0-0.2,0
		c-0.9,0-1.4-0.6-1.4-1.4c0-0.2,0-0.3,0-0.5c-0.5,0-0.9,0-1.4,0c-0.9,0-1.5-0.5-1.5-1.5C8.6,9.1,8.6,7.3,8.6,5.5z M19.1,6.7
		c0,0.3,0,0.5,0,0.8c-0.4,0-0.8,0-1.1,0c0-0.3,0-0.5,0-0.8c-0.4,0-0.7,0-1.1,0c0,0.3,0,0.5,0,0.8c-0.4,0-0.7,0-1.1,0
		c0-0.3,0-0.5,0-0.8c-0.4,0-0.8,0-1.1,0c0,0.3,0,0.5,0,0.8c-0.4,0-0.7,0-1.1,0c0-0.3,0-0.5,0-0.8c-0.4,0-0.7,0-1.1,0
		c0,0.3,0,0.5,0,0.8c-0.4,0-0.8,0-1.1,0c0-0.3,0-0.5,0-0.8c-0.5,0-0.9,0-1.4,0c0,1.4,0,2.9,0,4.3c0,0.2,0.1,0.2,0.3,0.2
		c0.4,0,0.8,0,1.2,0c0.1,0,0.1,0,0.2,0c0-0.9,0-1.7,0-2.6c3.2,0,6.3,0,9.5,0c0,0.9,0,1.7,0,2.6c0.5,0,1,0,1.4,0c0.3,0,0.3,0,0.3-0.3
		c0-1.3,0-2.7,0-4c0-0.1,0-0.1,0-0.2c-0.5,0-0.9,0-1.4,0c0,0.3,0,0.5,0,0.8c-0.4,0-0.7,0-1.1,0c0-0.3,0-0.5,0-0.8
		C19.8,6.7,19.5,6.7,19.1,6.7z M19.8,9.8c-2.4,0-4.8,0-7.2,0c0,1,0,2,0,3.1c0,0.3,0,0.3,0.3,0.3c2.2,0,4.3,0,6.5,0c0,0,0.1,0,0.1,0
		c0.1,0,0.2-0.1,0.2-0.2C19.8,11.9,19.8,10.8,19.8,9.8z M18.1,14.3c-1.3,0-2.5,0-3.8,0c0,0.7,0.4,1.1,1,1.1c0.6,0,1.1,0,1.7,0
		C17.8,15.4,18.2,15,18.1,14.3z M16.8,17.7c0-0.4,0-0.7,0-1.1c-0.4,0-0.7,0-1.1,0c0,0.4,0,0.7,0,1.1C16.1,17.7,16.4,17.7,16.8,17.7z
		"/>
	<path class="st5" d="M18.2,10.9c0.3,0,0.6,0.3,0.5,0.6c0,0.3-0.3,0.6-0.6,0.5c-0.3,0-0.6-0.3-0.5-0.6
		C17.6,11.1,17.9,10.9,18.2,10.9z"/>
</g>
<path class="st6" d="M22.3,12.5H10.3c-0.9,0-1.7-0.7-1.7-1.7V5.5H24v5.3C24,11.7,23.3,12.5,22.3,12.5z"/>
</svg>
